<svg fill="none" height="70" viewBox="0 0 317 70" width="317" xmlns="http://www.w3.org/2000/svg" xmlns:xlink="http://www.w3.org/1999/xlink"><clipPath id="a"><path d="m0 0h317v70h-317z"/></clipPath><g clip-path="url(#a)" fill="#fff"><path d="m263.503.397827c-.391.703743-.847 1.453443-1.371 2.257043-2.785 4.31516-3.34 5.26854-3.45 5.47776-1.055 1.93767-1.583 3.60187-1.583 4.97057 0 1.7863.596 3.2492 1.822 4.4744 1.227 1.226 2.725 1.822 4.581 1.822 1.775 0 3.252-.588 4.514-1.7966 1.248-1.188 1.853-2.6604 1.853-4.4998 0-1.23-.395-2.666-1.178-4.26921-.535-1.09127-1.511-2.71352-2.898-4.81682-.97-1.46771-1.727-2.66597-2.29-3.619343"/><path d="m14.1224 47.8083h14.1223v8.0748c0 8.2919-5.137 13.8569-14.1223 13.8569-8.98859 0-14.1224-5.565-14.1224-13.8569v-10.8049c0-8.2919 5.13381-13.8537 14.1224-13.8537 8.4504 0 13.4804 4.9206 14.0668 12.3566h-7.2197c-.6411-3.3712-3.4235-5.2431-6.8471-5.2431-3.9063 0-6.95424 2.4068-6.95424 6.7402v10.8049c0 4.3342 3.04794 6.741 6.95424 6.741 3.903 0 6.9541-2.4068 6.9541-6.741v-.9613h-6.9541z"/><path d="m48.1301 53.7981v15.4077h-7.1681v-37.4464h15.781c7.5953 0 11.8225 4.2787 11.8225 11.0189 0 5.565-2.8347 9.4157-8.0779 10.6465l9.3087 15.781h-8.2396l-9.0409-15.4077zm8.7746-14.926h-8.7746v7.9718h8.7746c2.727 0 4.4927-1.3901 4.4927-3.9586 0-2.6208-1.7657-4.0132-4.4927-4.0132z"/><path d="m88.489 46.7361h11.874v7.1166h-11.874v8.2365h15.619v7.1166h-22.7872v-37.4464h22.7872v7.1127h-15.619z"/><path d="m123.39 46.7361h11.874v7.1166h-11.874v8.2365h15.618v7.1166h-22.786v-37.4464h22.786v7.1127h-15.618z"/><path d="m179.26 69.2058h-7.168l-13.908-24.1276v24.1276h-7.168v-37.4464h7.168l13.908 24.1237v-24.1237h7.168z"/><path d="m239.765 56.6867c-.321 7.8648-5.403 13.0533-14.123 13.0533-8.985 0-14.121-5.565-14.121-13.8569v-10.8049c0-8.2919 5.136-13.8537 14.121-13.8537 8.72 0 13.802 5.1893 14.123 13.0501h-7.22c-.377-3.7961-3.265-5.9366-6.903-5.9366-3.903 0-6.953 2.4068-6.953 6.7402v10.8049c0 4.3342 3.05 6.741 6.953 6.741 3.638 0 6.526-2.0866 6.903-5.9374z"/><path d="m277.606 31.7594v24.1237c0 8.292-5.137 13.8569-14.122 13.8569-8.988 0-14.122-5.5649-14.122-13.8569v-24.1237h7.169v24.1237c0 4.3342 3.047 6.741 6.953 6.741 3.904 0 6.954-2.4068 6.954-6.741v-24.1237z"/><path d="m295.924 69.2058h-7.168v-37.4464h15.298c8.88 0 12.946 6.0991 12.946 12.9463 0 6.7925-4.066 12.9978-12.946 12.9978h-8.13zm8.13-18.6182c3.961 0 5.778-2.9964 5.778-5.8819 0-2.8894-1.817-5.8336-5.778-5.8336h-8.13v11.7155z"/></g></svg>